# xmcd CD database file
#
# Track frame offsets:
#	150
#	32951
#	60073
#	95989
#	126156
#	155076
#	183783
#	215410
#
# Disc length: 3142 seconds
#
# Revision: 2
# Processed by: cddbd v1.5.2PL0 Copyright (c) Steve Scherf et al.
# Submitted via: CDex 1.70beta2
#
DISCID=6b0c4408
DTITLE=Cassio Vianna Jazz Orchestra - Infância
DYEAR=2017
DGENRE=Jazz
TTITLE0=Cassio Vianna Jazz Orchestra - The Nomad
TTITLE1=Cassio Vianna Jazz Orchestra - Distant Dreams
TTITLE2=Cassio Vianna Jazz Orchestra - Baiao Moderno
TTITLE3=Cassio Vianna Jazz Orchestra - April Song
TTITLE4=Cassio Vianna Jazz Orchestra - Belmont
TTITLE5=Cassio Vianna Jazz Orchestra - Amizade
TTITLE6=Cassio Vianna Jazz Orchestra - For the Rise of a New Day
TTITLE7=Cassio Vianna Jazz Orchestra - Rio Vermelho
EXTD=YEAR: 2017
EXTT0=
EXTT1=
EXTT2=
EXTT3=
EXTT4=
EXTT5=
EXTT6=
EXTT7=
PLAYORDER=
